<?xml version="1.0" standalone="no"?>
<!DOCTYPE svg PUBLIC "-//W3C//DTD SVG 20010904//EN"
 "http://www.w3.org/TR/2001/REC-SVG-20010904/DTD/svg10.dtd">
<svg version="1.0" xmlns="http://www.w3.org/2000/svg"
 width="1500.000000pt" height="1500.000000pt" viewBox="0 0 1500.000000 1500.000000"
 preserveAspectRatio="xMidYMid meet">

<g transform="translate(0.000000,1500.000000) scale(0.100000,-0.100000)"
fill="#000000" stroke="none">
<path d="M7315 13273 c-60 -2 -373 -10 -695 -18 -386 -10 -974 -15 -1726 -15
l-1139 0 -88 -88 -87 -87 0 -278 0 -277 23 -4 c12 -3 101 -12 197 -21 303 -27
462 -46 568 -66 105 -20 229 -60 268 -86 47 -30 85 -222 104 -523 13 -222 14
-6641 0 -6865 -13 -201 -35 -366 -61 -451 -16 -51 -27 -69 -52 -85 -108 -66
-360 -114 -722 -138 -88 -6 -197 -14 -242 -17 l-83 -6 0 -282 0 -281 88 -88
87 -87 1765 0 1765 0 87 87 88 88 0 281 0 282 -82 6 c-46 3 -150 10 -233 16
-262 18 -483 64 -578 120 -52 31 -75 109 -104 345 -14 112 -17 327 -20 1518
l-4 1387 408 -2 407 -3 1260 -2062 1260 -2063 1250 0 1251 0 87 87 88 88 0
281 0 282 -77 6 c-43 3 -181 11 -308 16 -404 18 -494 32 -608 93 -100 53 -212
181 -493 567 -260 356 -564 815 -2032 3068 -14 22 -13 23 49 49 111 47 360
176 465 242 649 407 1059 998 1208 1741 40 198 57 358 63 600 18 699 -132
1249 -459 1683 -87 116 -275 301 -397 391 -394 292 -904 470 -1541 541 -288
31 -565 39 -1005 28z m285 -832 c353 -46 601 -120 800 -237 103 -61 240 -188
309 -289 141 -203 232 -488 278 -865 22 -183 25 -678 4 -845 -66 -552 -229
-935 -520 -1226 -294 -294 -702 -467 -1261 -534 -81 -10 -256 -19 -437 -22
l-303 -6 0 2023 0 2022 523 -5 c292 -3 559 -10 607 -16z"/>
</g>
</svg>
